<svg xmlns="http://www.w3.org/2000/svg" width="32" height="32" viewBox="0 0 32 32">
  <g fill="none" stroke="#000" stroke-width="2.5" stroke-linecap="round" stroke-linejoin="round">
    <path d="M7.2 13.4c2.1-3.5 5.6-5.2 10.1-5.2 4.2 0 7.6 1.5 9.4 4.5l3.1 1v6.1l-3.2 1.2c-.8 1.4-2 2.5-3.5 3.3v3.2h-4.2v-2.1c-1 .2-2 .3-3 .3-1.1 0-2.2-.1-3.2-.4v2.2H8.5v-4.3a9.2 9.2 0 0 1-2.4-5.9"/>
    <path d="M19.4 8.5 22 4.9l3.2 5.4M12.5 8.8h5.2"/>
    <path d="M7 14.7c-2.1.7-4.5-.1-4.7-2.1-.2-1.4.9-2.4 2-2.1 1.3.4 1.3 2.1.2 2.5"/>
  </g>
  <circle cx="24" cy="13.8" r="1.15" fill="#000"/>
</svg>
